<mxfile host="app.diagrams.net" modified="2021-02-05T01:36:49.592Z" agent="5.0 (Macintosh; Intel Mac OS X 10_15_7) AppleWebKit/605.1.15 (KHTML, like Gecko) Version/14.0.1 Safari/605.1.15" etag="PhvIs0yRk22VvGOqi6M6" version="14.2.9" type="github">
  <diagram id="2Oj5FCNl6cm_R_CUm-L-" name="Page-1">
    <mxGraphModel dx="1351" dy="910" grid="1" gridSize="10" guides="1" tooltips="1" connect="1" arrows="1" fold="1" page="1" pageScale="1" pageWidth="850" pageHeight="1100" math="0" shadow="0">
      <root>
        <mxCell id="0" />
        <mxCell id="1" parent="0" />
        <mxCell id="WbqPN7F52hnMzMcX_d9S-8" value="" style="rounded=1;whiteSpace=wrap;html=1;" parent="1" vertex="1">
          <mxGeometry x="30.5" y="285" width="790" height="530" as="geometry" />
        </mxCell>
        <mxCell id="WbqPN7F52hnMzMcX_d9S-1" value="Job Seeker" style="shape=umlActor;verticalLabelPosition=bottom;verticalAlign=top;html=1;outlineConnect=0;" parent="1" vertex="1">
          <mxGeometry x="375" y="60" width="100" height="160" as="geometry" />
        </mxCell>
        <mxCell id="WbqPN7F52hnMzMcX_d9S-2" value="Administrator" style="shape=umlActor;verticalLabelPosition=bottom;verticalAlign=top;html=1;outlineConnect=0;" parent="1" vertex="1">
          <mxGeometry x="375.5" y="880" width="100" height="160" as="geometry" />
        </mxCell>
        <mxCell id="WbqPN7F52hnMzMcX_d9S-9" value="&lt;font style=&quot;font-size: 18px&quot;&gt;JobMe - Online Job Application Tracker&lt;/font&gt;" style="text;strokeColor=none;fillColor=none;html=1;fontSize=24;fontStyle=1;verticalAlign=middle;align=center;" parent="1" vertex="1">
          <mxGeometry x="253" y="750" width="345" height="20" as="geometry" />
        </mxCell>
        <mxCell id="WbqPN7F52hnMzMcX_d9S-42" style="edgeStyle=orthogonalEdgeStyle;rounded=0;orthogonalLoop=1;jettySize=auto;html=1;entryX=0;entryY=0.5;entryDx=0;entryDy=0;" parent="1" source="WbqPN7F52hnMzMcX_d9S-10" target="WbqPN7F52hnMzMcX_d9S-16" edge="1">
          <mxGeometry relative="1" as="geometry" />
        </mxCell>
        <mxCell id="WbqPN7F52hnMzMcX_d9S-10" value="" style="ellipse;whiteSpace=wrap;html=1;" parent="1" vertex="1">
          <mxGeometry x="70" y="370" width="220" height="90" as="geometry" />
        </mxCell>
        <mxCell id="WbqPN7F52hnMzMcX_d9S-13" value="&lt;font style=&quot;font-size: 16px&quot;&gt;Create/Modify New Application&lt;/font&gt;" style="text;html=1;strokeColor=none;fillColor=none;align=center;verticalAlign=middle;whiteSpace=wrap;rounded=0;" parent="1" vertex="1">
          <mxGeometry x="115" y="405" width="130" height="20" as="geometry" />
        </mxCell>
        <mxCell id="WbqPN7F52hnMzMcX_d9S-41" style="edgeStyle=orthogonalEdgeStyle;rounded=0;orthogonalLoop=1;jettySize=auto;html=1;" parent="1" source="WbqPN7F52hnMzMcX_d9S-14" target="WbqPN7F52hnMzMcX_d9S-16" edge="1">
          <mxGeometry relative="1" as="geometry" />
        </mxCell>
        <mxCell id="WbqPN7F52hnMzMcX_d9S-14" value="" style="ellipse;whiteSpace=wrap;html=1;" parent="1" vertex="1">
          <mxGeometry x="70" y="490" width="220" height="90" as="geometry" />
        </mxCell>
        <mxCell id="WbqPN7F52hnMzMcX_d9S-40" style="edgeStyle=orthogonalEdgeStyle;rounded=0;orthogonalLoop=1;jettySize=auto;html=1;entryX=0;entryY=1;entryDx=0;entryDy=0;" parent="1" source="WbqPN7F52hnMzMcX_d9S-15" target="WbqPN7F52hnMzMcX_d9S-16" edge="1">
          <mxGeometry relative="1" as="geometry">
            <Array as="points">
              <mxPoint x="310" y="655" />
              <mxPoint x="310" y="595" />
              <mxPoint x="362" y="595" />
            </Array>
          </mxGeometry>
        </mxCell>
        <mxCell id="WbqPN7F52hnMzMcX_d9S-15" value="" style="ellipse;whiteSpace=wrap;html=1;" parent="1" vertex="1">
          <mxGeometry x="70" y="610" width="220" height="90" as="geometry" />
        </mxCell>
        <mxCell id="WbqPN7F52hnMzMcX_d9S-16" value="" style="ellipse;whiteSpace=wrap;html=1;" parent="1" vertex="1">
          <mxGeometry x="330" y="550" width="220" height="90" as="geometry" />
        </mxCell>
        <mxCell id="WbqPN7F52hnMzMcX_d9S-17" value="&lt;font style=&quot;font-size: 16px&quot;&gt;Create/Modify New Interview&lt;/font&gt;" style="text;html=1;strokeColor=none;fillColor=none;align=center;verticalAlign=middle;whiteSpace=wrap;rounded=0;" parent="1" vertex="1">
          <mxGeometry x="115" y="525" width="130" height="20" as="geometry" />
        </mxCell>
        <mxCell id="WbqPN7F52hnMzMcX_d9S-18" value="&lt;font style=&quot;font-size: 16px&quot;&gt;Upload Resume, Cover Letter Documents&lt;br&gt;&lt;/font&gt;" style="text;html=1;strokeColor=none;fillColor=none;align=center;verticalAlign=middle;whiteSpace=wrap;rounded=0;" parent="1" vertex="1">
          <mxGeometry x="115" y="645" width="130" height="20" as="geometry" />
        </mxCell>
        <mxCell id="WbqPN7F52hnMzMcX_d9S-19" value="&lt;font style=&quot;font-size: 16px&quot;&gt;View Dashboard&lt;br&gt;&lt;/font&gt;" style="text;html=1;strokeColor=none;fillColor=none;align=center;verticalAlign=middle;whiteSpace=wrap;rounded=0;" parent="1" vertex="1">
          <mxGeometry x="375" y="585" width="130" height="20" as="geometry" />
        </mxCell>
        <mxCell id="WbqPN7F52hnMzMcX_d9S-20" value="" style="ellipse;whiteSpace=wrap;html=1;" parent="1" vertex="1">
          <mxGeometry x="330" y="430" width="220" height="90" as="geometry" />
        </mxCell>
        <mxCell id="WbqPN7F52hnMzMcX_d9S-21" value="&lt;font style=&quot;font-size: 16px&quot;&gt;View Job Seeker Profile&lt;br&gt;&lt;/font&gt;" style="text;html=1;strokeColor=none;fillColor=none;align=center;verticalAlign=middle;whiteSpace=wrap;rounded=0;" parent="1" vertex="1">
          <mxGeometry x="375" y="470" width="130" height="20" as="geometry" />
        </mxCell>
        <mxCell id="WbqPN7F52hnMzMcX_d9S-22" value="" style="ellipse;whiteSpace=wrap;html=1;" parent="1" vertex="1">
          <mxGeometry x="570" y="490" width="220" height="90" as="geometry" />
        </mxCell>
        <mxCell id="WbqPN7F52hnMzMcX_d9S-23" value="&lt;font style=&quot;font-size: 16px&quot;&gt;Register as New User&lt;/font&gt;" style="text;html=1;strokeColor=none;fillColor=none;align=center;verticalAlign=middle;whiteSpace=wrap;rounded=0;" parent="1" vertex="1">
          <mxGeometry x="620" y="525" width="130" height="20" as="geometry" />
        </mxCell>
        <mxCell id="WbqPN7F52hnMzMcX_d9S-28" value="" style="endArrow=classic;html=1;exitX=0.5;exitY=0;exitDx=0;exitDy=0;exitPerimeter=0;" parent="1" source="WbqPN7F52hnMzMcX_d9S-2" edge="1">
          <mxGeometry width="50" height="50" relative="1" as="geometry">
            <mxPoint x="610" y="630" as="sourcePoint" />
            <mxPoint x="660" y="580" as="targetPoint" />
            <Array as="points">
              <mxPoint x="620" y="780" />
            </Array>
          </mxGeometry>
        </mxCell>
        <mxCell id="WbqPN7F52hnMzMcX_d9S-29" value="" style="endArrow=classic;html=1;exitX=1;exitY=1;exitDx=0;exitDy=0;exitPerimeter=0;" parent="1" source="WbqPN7F52hnMzMcX_d9S-1" edge="1">
          <mxGeometry width="50" height="50" relative="1" as="geometry">
            <mxPoint x="450" y="785" as="sourcePoint" />
            <mxPoint x="684.5" y="485" as="targetPoint" />
          </mxGeometry>
        </mxCell>
        <mxCell id="WbqPN7F52hnMzMcX_d9S-31" value="" style="endArrow=classic;html=1;entryX=0.5;entryY=0;entryDx=0;entryDy=0;" parent="1" target="WbqPN7F52hnMzMcX_d9S-20" edge="1">
          <mxGeometry width="50" height="50" relative="1" as="geometry">
            <mxPoint x="520" y="280" as="sourcePoint" />
            <mxPoint x="694.5" y="495" as="targetPoint" />
            <Array as="points" />
          </mxGeometry>
        </mxCell>
        <mxCell id="WbqPN7F52hnMzMcX_d9S-32" value="" style="endArrow=classic;html=1;exitX=1;exitY=1;exitDx=0;exitDy=0;exitPerimeter=0;entryX=0.705;entryY=0.011;entryDx=0;entryDy=0;entryPerimeter=0;" parent="1" target="WbqPN7F52hnMzMcX_d9S-10" edge="1">
          <mxGeometry width="50" height="50" relative="1" as="geometry">
            <mxPoint x="375" y="220" as="sourcePoint" />
            <mxPoint x="315" y="420" as="targetPoint" />
            <Array as="points" />
          </mxGeometry>
        </mxCell>
        <mxCell id="WbqPN7F52hnMzMcX_d9S-34" value="" style="endArrow=classic;html=1;exitX=0;exitY=1;exitDx=0;exitDy=0;exitPerimeter=0;entryX=0.911;entryY=0.175;entryDx=0;entryDy=0;entryPerimeter=0;" parent="1" source="WbqPN7F52hnMzMcX_d9S-1" edge="1" target="WbqPN7F52hnMzMcX_d9S-14">
          <mxGeometry width="50" height="50" relative="1" as="geometry">
            <mxPoint x="350" y="250" as="sourcePoint" />
            <mxPoint x="290" y="525" as="targetPoint" />
            <Array as="points" />
          </mxGeometry>
        </mxCell>
        <mxCell id="WbqPN7F52hnMzMcX_d9S-37" value="" style="endArrow=classic;html=1;exitX=0;exitY=1;exitDx=0;exitDy=0;exitPerimeter=0;entryX=0.918;entryY=0.206;entryDx=0;entryDy=0;entryPerimeter=0;" parent="1" source="WbqPN7F52hnMzMcX_d9S-1" edge="1" target="WbqPN7F52hnMzMcX_d9S-15">
          <mxGeometry width="50" height="50" relative="1" as="geometry">
            <mxPoint x="375" y="340" as="sourcePoint" />
            <mxPoint x="290" y="645" as="targetPoint" />
            <Array as="points">
              <mxPoint x="390" y="270" />
            </Array>
          </mxGeometry>
        </mxCell>
        <mxCell id="WbqPN7F52hnMzMcX_d9S-38" value="" style="endArrow=classic;html=1;entryX=1;entryY=0;entryDx=0;entryDy=0;" parent="1" edge="1" target="WbqPN7F52hnMzMcX_d9S-16">
          <mxGeometry width="50" height="50" relative="1" as="geometry">
            <mxPoint x="610" y="400" as="sourcePoint" />
            <mxPoint x="490.5" y="555" as="targetPoint" />
            <Array as="points" />
          </mxGeometry>
        </mxCell>
      </root>
    </mxGraphModel>
  </diagram>
</mxfile>
